<svg xmlns="http://www.w3.org/2000/svg" viewBox="0 0 110.5 72.41">
    <g dataName="Layer 2">
        <path fill="#322D66" d="M107.49.57C96.75,15.82,80.93,26.62,63.08,27.43A11.23,11.23,0,0,1,61,27.24a14.77,14.77,0,0,0-.62-9.69c-2.16-5.26-7.67-8.79-11.65-6.29-3.66,2.3-3.5,8.07-1.14,12.63a13,13,0,0,0,7,6.39l-2.94,2.27c-4.21,1.93-9.35,1.68-14.05,1.41-7.35-.41-14.94-1.77-22-.05-9,2.22-17.85,11.2-15,24.48,1.88,9,9,14.72,15.37,14,0-.08,0-.14,0-.21.23-1.3.31-2.65.54-3.94-7.47,3.07-13.91-8.5-13-16A16.93,16.93,0,0,1,9.73,41c5.51-4.21,12.85-4.13,19.65-3.69,8.52.56,18.73,2.74,26-2.13a13.5,13.5,0,0,0,3.68-3.8,28.92,28.92,0,0,0,4.54.09c18.76-1.07,35.19-11.94,46.55-28.07C111.42,1.61,108.75-1.21,107.49.57Z" dataName="Layer 1"/>
    </g>
</svg>