<?xml version="1.0" encoding="UTF-8" standalone="no" ?>
<!DOCTYPE svg PUBLIC "-//W3C//DTD SVG 1.1//EN" "http://www.w3.org/Graphics/SVG/1.1/DTD/svg11.dtd">
<svg xmlns="http://www.w3.org/2000/svg" xmlns:xlink="http://www.w3.org/1999/xlink" version="1.1" width="1080" height="1080" viewBox="0 0 1080 1080" xml:space="preserve">
<desc>Created with Fabric.js 5.2.4</desc>
<defs>
</defs>
<g transform="matrix(1 0 0 1 540 540)" id="ef6ab42d-7d25-4b50-8c20-3c8a786a057d"  >
<rect style="stroke: none; stroke-width: 1; stroke-dasharray: none; stroke-linecap: butt; stroke-dashoffset: 0; stroke-linejoin: miter; stroke-miterlimit: 4; fill: rgb(255,255,255); fill-rule: nonzero; opacity: 1; visibility: hidden;" vectorEffect="non-scaling-stroke"  x="-540" y="-540" rx="0" ry="0" width="1080" height="1080" />
</g>
<g transform="matrix(1 0 0 1 540 540)" id="729c0b59-2446-49be-9240-5d8fd12fd2df"  >
</g>

<g transform="matrix(1.87 0 0 1.87 540 539)"  >
<path style="stroke: none; stroke-width: 1; stroke-dasharray: none; stroke-linecap: butt; stroke-dashoffset: 0; stroke-linejoin: miter; stroke-miterlimit: 4; fill: rgb(254,127,40); fill-rule: nonzero; opacity: 1;" vectorEffect="non-scaling-stroke"  transform=" translate(33.6, -261.1)" d="M 0 0 C 0 0.66 0 1.32 0 2 C 0.5576001 2.04487549 1.1152002 2.08975098 1.68969727 2.13598633 C 20.35465437 3.67558166 37.10518842 6.80515247 54.5625 13.6875 C 55.38041016 14.00783203 56.19832031 14.32816406 57.04101562 14.65820312 C 59.02813622 15.43678254 61.01418427 16.21809845 63 17 C 63.06058594 17.63808594 63.12117188 18.27617188 63.18359375 18.93359375 C 63.30927734 20.17302734 63.30927734 20.17302734 63.4375 21.4375 C 63.51871094 22.26121094 63.59992188 23.08492187 63.68359375 23.93359375 C 63.78930815 25.98662025 63.78930815 25.98662025 65 27 C 65.14115161 29.67058851 65.04247107 32.32432238 65 35 C 65.99 35.33 66.98 35.66 68 36 C 68 39.3 68 42.6 68 46 C 68.66 46 69.32 46 70 46 C 70.06058594 46.63808594 70.12117188 47.27617188 70.18359375 47.93359375 C 70.26738281 48.75988281 70.35117187 49.58617187 70.4375 50.4375 C 70.51871094 51.26121094 70.59992188 52.08492187 70.68359375 52.93359375 C 70.78930815 54.98662025 70.78930815 54.98662025 72 56 C 72.07205511 57.68608966 72.08386068 59.37500659 72.0625 61.0625 C 72.05347656 61.98160156 72.04445313 62.90070313 72.03515625 63.84765625 C 72.01775391 64.91306641 72.01775391 64.91306641 72 66 C 72.66 66 73.32 66 74 66 C 74.06058594 66.63808594 74.12117188 67.27617187 74.18359375 67.93359375 C 74.30927734 69.17302734 74.30927734 69.17302734 74.4375 70.4375 C 74.51871094 71.26121094 74.59992188 72.08492188 74.68359375 72.93359375 C 74.78930815 74.98662025 74.78930815 74.98662025 76 76 C 76.32097751 78.31817089 76.51220956 80.63779357 76.71875 82.96875 C 76.79065837 84.99180593 76.79065837 84.99180593 78 86 C 78.07205511 87.68608966 78.08386068 89.37500659 78.0625 91.0625 C 78.05347656 91.98160156 78.04445313 92.90070313 78.03515625 93.84765625 C 78.01775391 94.91306641 78.01775391 94.91306641 78 96 C 78.66 96 79.32 96 80 96 C 80 98.97 80 101.94 80 105 C 80.66 105 81.32 105 82 105 C 82.06058594 105.62648438 82.12117188 106.25296875 82.18359375 106.8984375 C 82.26738281 107.71570313 82.35117187 108.53296875 82.4375 109.375 C 82.51871094 110.18710938 82.59992188 110.99921875 82.68359375 111.8359375 C 82.89090114 114.04272805 82.89090114 114.04272805 84 116 C 84.06996014 117.70702735 84.08440154 119.41668003 84.0625 121.125 C 84.05347656 122.03507812 84.04445313 122.94515625 84.03515625 123.8828125 C 84.01775391 124.93082031 84.01775391 124.93082031 84 126 C 84.66 126 85.32 126 86 126 C 86 129.63 86 133.26 86 137 C 86.66 137 87.32 137 88 137 C 88 139.97 88 142.94 88 146 C 88.66 146 89.32 146 90 146 C 90 149.63 90 153.26 90 157 C 90.66 157 91.32 157 92 157 C 92.74507544 163.37305598 93.10349817 169.58311325 93 176 C 93.99 176 94.98 176 96 176 C 96 179.63 96 183.26 96 187 C 96.66 187 97.32 187 98 187 C 99.7879537 193.8165735 100.23668569 199.96517526 100 207 C 100.66 207 101.32 207 102 207 C 102 210.3 102 213.6 102 217 C 102.66 217 103.32 217 104 217 C 104 220.3 104 223.6 104 227 C 104.66 227 105.32 227 106 227 C 106 230.3 106 233.6 106 237 C 106.66 237 107.32 237 108 237 C 108 240.3 108 243.6 108 247 C 108.66 247 109.32 247 110 247 C 110 250.3 110 253.6 110 257 C 110.66 257 111.32 257 112 257 C 112 260.3 112 263.6 112 267 C 112.66 267 113.32 267 114 267 C 114.33 270.3 114.66 273.6 115 277 C 122.01161721 277.42069703 128.5805394 275.85684494 135.421875 274.4453125 C 136.73060753 274.1804389 138.03946836 273.91619858 139.34844971 273.65255737 C 142.78458434 272.95887995 146.21905875 272.25731225 149.65319824 271.55383301 C 153.79752992 270.70624395 157.94361858 269.86730306 162.08958817 269.02776909 C 165.32204292 268.37314538 168.55406906 267.71664373 171.78533936 267.05618286 C 178.02033825 265.78518222 184.259442 264.57448028 190.52307129 263.45339966 C 194.14140196 262.79106736 197.73823139 262.03877252 201.3359375 261.2734375 C 202.82677875 260.96072687 204.31766546 260.6482329 205.80859375 260.3359375 C 208.10644553 259.85316649 210.4039347 259.36885221 212.70068359 258.88085938 C 214.95317975 258.40304274 217.20691882 257.93151184 219.4609375 257.4609375 C 220.14433197 257.31409515 220.82772644 257.16725281 221.53182983 257.01596069 C 225.05949991 256.28457616 228.39761771 255.63821008 232 256 C 234 258 234 258 234.24365234 261.00317383 C 234.15880035 271.09612813 233.64621688 281.10775107 232.828125 291.16772461 C 232.62218389 293.72243393 232.43175273 296.27801322 232.2421875 298.83398438 C 232.11289874 300.47663514 231.98272402 302.11921646 231.8515625 303.76171875 C 231.79626373 304.51692307 231.74096497 305.27212738 231.68399048 306.05021667 C 231.34688007 310.03833654 230.72774481 313.37743862 229 317 C 228.34 317 227.68 317 227 317 C 226.96261719 317.6084375 226.92523437 318.216875 226.88671875 318.84375 C 226.2474754 327.36699471 224.66944437 335.63177885 223 344 C 222.34 344 221.68 344 221 344 C 220.896875 345.03125 220.79375 346.0625 220.6875 347.125 C 219.99755153 351.01380047 218.77950816 353.512164 217 357 C 216.54666431 358.91048612 216.09412996 360.82118515 215.65234375 362.734375 C 213.5893474 369.89927249 209.79525547 376.50512826 206.12109375 382.94921875 C 204.5226208 385.87325464 203.2848746 388.92747379 202 392 C 199.68512201 397.19795331 196.93438596 401.52533666 193.43359375 406.00390625 C 192.04854296 407.93241021 191.05507037 409.78622087 190.0625 411.9375 C 188.14175118 416.01909125 185.56153652 419.32651251 182.734375 422.82421875 C 181.16577574 424.79203358 179.72977138 426.79721017 178.3125 428.875 C 176 432 176 432 173.8125 433.625 C 171.81794102 434.86110362 171.81794102 434.86110362 171.34375 437.1171875 C 169.33743984 441.42142266 166.07913575 444.23445938 162.6875 447.5 C 162.02298828 448.15097656 161.35847656 448.80195312 160.67382812 449.47265625 C 159.37753632 450.74202211 158.07854515 452.00863836 156.77661133 453.2722168 C 153.60537729 456.3562931 150.49001741 459.4860793 147.4375 462.6875 C 145 465 145 465 142.8125 466.0625 C 140.82526777 466.85282498 140.82526777 466.85282498 140.125 468.9375 C 138.76106526 471.43804702 137.77916713 471.86218114 135.1875 472.9375 C 131.32771894 474.70714691 128.93625367 476.90502991 126 480 C 124.35394174 481.03357147 122.69036558 482.04060332 121 483 C 120.34 483.66 119.68 484.32 119 485 C 117.88625 485.433125 116.7725 485.86625 115.625 486.3125 C 111.94420223 487.69732332 111.94420223 487.69732332 110.0625 490.4375 C 107.30601962 493.86221805 104.0629768 495.42581635 100 497 C 99.34 497 98.68 497 98 497 C 97.67 497.99 97.34 498.98 97 500 C 94.4375 501.4375 94.4375 501.4375 91 503 C 89.66520034 503.68464873 88.33191496 504.37225616 87 505.0625 C 82.4944067 507.31529665 77.90755595 508.86748709 73 510 C 73 510.66 73 511.32 73 512 C 72.12988281 512.27263672 72.12988281 512.27263672 71.2421875 512.55078125 C 70.46101563 512.80214844 69.67984375 513.05351563 68.875 513.3125 C 68.10929687 513.55613281 67.34359375 513.79976562 66.5546875 514.05078125 C 63.90859981 514.97219928 63.90859981 514.97219928 61.203125 516.46875 C 57.48514398 518.24612629 53.86780009 519.23559868 49.875 520.1875 C 49.17246094 520.36474609 48.46992187 520.54199219 47.74609375 520.72460938 C 44.36626319 521.55199701 41.50253505 522 38 522 C 38 522.66 38 523.32 38 524 C 35.36 524 32.72 524 30 524 C 30 524.66 30 525.32 30 526 C 27.69 526 25.38 526 23 526 C 23 524.02 23 522.04 23 520 C 22.34 520 21.68 520 21 520 C 21 516.7 21 513.4 21 510 C 20.34 510 19.68 510 19 510 C 19 506.37 19 502.74 19 499 C 18.34 499 17.68 499 17 499 C 17 496.03 17 493.06 17 490 C 16.34 490 15.68 490 15 490 C 15 486.37 15 482.74 15 479 C 14.34 479 13.68 479 13 479 C 13 475.7 13 472.4 13 469 C 12.34 469 11.68 469 11 469 C 11 465.7 11 462.4 11 459 C 10.34 459 9.68 459 9 459 C 9 455.7 9 452.4 9 449 C 8.34 449 7.68 449 7 449 C 6.93941406 448.36191406 6.87882812 447.72382812 6.81640625 447.06640625 C 6.69072266 445.82697266 6.69072266 445.82697266 6.5625 444.5625 C 6.48128906 443.73878906 6.40007812 442.91507812 6.31640625 442.06640625 C 6.21069185 440.01337975 6.21069185 440.01337975 5 439 C 4.92794489 437.31391034 4.91613932 435.62499341 4.9375 433.9375 C 4.95103516 432.55884766 4.95103516 432.55884766 4.96484375 431.15234375 C 4.98224609 430.08693359 4.98224609 430.08693359 5 429 C 4.34 429 3.68 429 3 429 C 3 425.7 3 422.4 3 419 C 2.34 419 1.68 419 1 419 C -0.6120509 412.23514355 -1.26618595 405.95041086 -1 399 C -1.66 399 -2.32 399 -3 399 C -7.77553612 377.39260417 -7.77553612 377.39260417 -7 368 C -7.66 368 -8.32 368 -9 368 C -10.51233701 361.53205867 -11.21432579 355.64409958 -11 349 C -11.66 349 -12.32 349 -13 349 C -14.00295731 343.96577925 -14.99968311 338.9303793 -15.99072266 333.89379883 C -16.32854107 332.18154852 -16.66804245 330.46962935 -17.00927734 328.75805664 C -17.50023006 326.29398931 -17.98506421 323.82878399 -18.46875 321.36328125 C -18.62186646 320.60163162 -18.77498291 319.83998199 -18.93273926 319.05525208 C -19.65911584 315.32155846 -20.18427484 311.80724982 -20 308 C -22.64 308 -25.28 308 -28 308 C -28 308.66 -28 309.32 -28 310 C -28.58378418 310.08040527 -29.16756836 310.16081055 -29.76904297 310.24365234 C -32.47146759 310.61767005 -35.17322565 310.99631465 -37.875 311.375 C -38.7928125 311.50132812 -39.710625 311.62765625 -40.65625 311.7578125 C -46.82428151 312.62654933 -52.90188756 313.73750016 -59 315 C -60.77170324 315.34726432 -62.54384684 315.69228892 -64.31640625 316.03515625 C -65.18201172 316.20466797 -66.04761719 316.37417969 -66.93945312 316.54882812 C -68.72274788 316.89805115 -70.50662769 317.24429696 -72.29101562 317.58789062 C -73.14501953 317.75611328 -73.99902344 317.92433594 -74.87890625 318.09765625 C -75.6479126 318.24726807 -76.41691895 318.39687988 -77.20922852 318.55102539 C -79.01104991 318.83974388 -79.01104991 318.83974388 -80 320 C -81.44609017 320.29774108 -82.90341451 320.54122922 -84.36328125 320.76171875 C -85.29914063 320.90810791 -86.235 321.05449707 -87.19921875 321.20532227 C -88.22660156 321.36444092 -89.25398437 321.52355957 -90.3125 321.6875 C -99.77531542 323.20267016 -109.13793206 325.01674529 -118.5 327.0625 C -119.684729 327.32071533 -120.86945801 327.57893066 -122.09008789 327.8449707 C -124.36541558 328.34106126 -126.64072565 328.83723259 -128.91601562 329.33349609 C -133.02001634 330.22044368 -137.12832728 331.07428968 -141.25 331.875 C -142.95929688 332.21144531 -142.95929688 332.21144531 -144.703125 332.5546875 C -148.53012711 333.07160485 -152.14103862 333.07583112 -156 333 C -153.31216297 348.31071612 -150.56830361 363.60016491 -147.4440918 378.82836914 C -146.15566572 385.12883639 -144.91275013 391.43854375 -143.66111755 397.74639893 C -142.97385242 401.20786566 -142.2850014 404.66901595 -141.59594727 408.13012695 C -141.24141136 409.91286653 -140.88756585 411.69574355 -140.53442383 413.47875977 C -138.68945611 422.79116781 -136.79537007 432.07386828 -134.61450195 441.31469727 C -133.79790244 444.88314307 -133.16374448 448.45129866 -132.5625 452.0625 C -130.52259077 463.99872565 -128.24661757 475.90685512 -125.4375 487.6875 C -124.25722518 492.7069105 -123.24074908 497.74147911 -122.3125 502.8125 C -122.18093506 503.50625732 -122.04937012 504.20001465 -121.91381836 504.91479492 C -121.06790514 509.67341232 -120.88634326 514.16688263 -121 519 C -125.62383036 518.449544 -128.87648694 517.10218313 -133 515 C -134.49258061 514.47826912 -135.9933252 513.97951124 -137.5 513.5 C -142.10340865 512.01702272 -146.24359909 510.13928708 -150.3125 507.5 C -152.74124388 506.14442202 -154.86538423 505.33610947 -157.5 504.5 C -161.96055015 503.07232806 -165.54268704 501.52256578 -168.83203125 498.0859375 C -171.05925888 495.94298335 -173.18800134 494.57341357 -175.875 493.0625 C -178.8796743 491.31785041 -181.6387485 489.60598015 -184.25 487.3125 C -186.91005417 484.8930374 -186.91005417 484.8930374 -190.125 483.4375 C -193.09447532 481.95276234 -194.71178568 480.36202769 -197 478 C -197.76183594 477.54367187 -198.52367187 477.08734375 -199.30859375 476.6171875 C -205.88652072 472.66470308 -211.66719842 467.48516734 -217 462 C -217.825 461.38125 -218.65 460.7625 -219.5 460.125 C -222.6024163 457.48794615 -224.95909957 454.52598117 -227 451 C -227 450.34 -227 449.68 -227 449 C -227.59425781 448.7421875 -228.18851562 448.484375 -228.80078125 448.21875 C -231.19302503 446.89303053 -232.44781639 445.59621136 -234.1875 443.5 C -237.67870054 439.36032593 -241.30933178 435.37154481 -244.984375 431.39453125 C -246.96442618 429.04226115 -248.45810807 426.65223392 -250 424 C -250.8353125 423.1646875 -250.8353125 423.1646875 -251.6875 422.3125 C -252.120625 421.879375 -252.55375 421.44625 -253 421 C -253 420.34 -253 419.68 -253 419 C -253.66 419 -254.32 419 -255 419 C -255.474375 417.80375 -255.94875 416.6075 -256.4375 415.375 C -258.73203125 410.13512501 -261.79239603 405.50012344 -265.00170898 400.78662109 C -268 396.30888959 -268 396.30888959 -268 393 C -268.66 393 -269.32 393 -270 393 C -271.4606285 390.35261084 -272 389.10551666 -272 386 C -272.66 386 -273.32 386 -274 386 C -277.64079463 379.56479472 -279.64134677 374.41216681 -280 367 C -280.66 367 -281.32 367 -282 367 C -283.49821059 363.62902617 -284 361.79557881 -284 358 C -284.66 358 -285.32 358 -286 358 C -286.25394531 356.92621094 -286.50789063 355.85242188 -286.76953125 354.74609375 C -287.1168659 353.30981802 -287.46454033 351.87362444 -287.8125 350.4375 C -287.97814453 349.73302734 -288.14378906 349.02855469 -288.31445312 348.30273438 C -289.45667684 343.62608254 -291.06296833 339.42159763 -293 335 C -294.99232398 328.4014911 -296.22620305 321.83520636 -297 315 C -297.33 314.67 -297.66 314.34 -298 314 C -302.60765298 296.16623434 -301.36191298 277.2723974 -301.03387451 259.02130127 C -301.00473231 257.28237797 -300.98597816 255.54328613 -300.96923828 253.80419922 C -300.74539152 232.47592301 -297.854485 207.479867 -289 188 C -287.03510496 182.93729747 -285.24714288 177.82163103 -283.62109375 172.640625 C -281.1815357 164.93446313 -278.82032334 158.09386832 -274.31640625 151.30859375 C -272.35468677 147.86830825 -271.51394655 144.28568803 -270.640625 140.4453125 C -269.41644936 135.77254451 -267.37250372 133.37250372 -264 130 C -263.67 129.01 -263.34 128.02 -263 127 C -262.52175781 126.52949219 -262.04351562 126.05898437 -261.55078125 125.57421875 C -259.75508379 123.75138229 -259.10861467 122.18889174 -258.1875 119.8125 C -255.15709298 112.71070644 -251.04813091 107.74042693 -245 103 C -244.54496094 102.236875 -244.08992188 101.47375 -243.62109375 100.6875 C -241.90863437 97.84853119 -239.99795839 95.62016825 -237.75 93.1875 C -234.92006812 90.10612021 -232.14006448 87.00587504 -229.4375 83.8125 C -226.50901681 80.44338855 -223.33155146 77.5502178 -219.921875 74.67578125 C -218.06368285 73.05552834 -216.38088052 71.35228584 -214.6875 69.5625 C -212 67 -212 67 -209 67 C -208.93941406 67.63808594 -208.87882812 68.27617187 -208.81640625 68.93359375 C -208.73261719 69.75988281 -208.64882813 70.58617187 -208.5625 71.4375 C -208.48128906 72.26121094 -208.40007812 73.08492188 -208.31640625 73.93359375 C -208.21069185 75.98662025 -208.21069185 75.98662025 -207 77 C -206.92794489 78.68608966 -206.91613932 80.37500659 -206.9375 82.0625 C -206.94652344 82.98160156 -206.95554687 83.90070313 -206.96484375 84.84765625 C -206.97644531 85.55792969 -206.98804688 86.26820313 -207 87 C -206.34 87 -205.68 87 -205 87 C -205 90.3 -205 93.6 -205 97 C -204.34 97 -203.68 97 -203 97 C -202.34752353 100.14449224 -201.70427425 103.29080756 -201.0625 106.4375 C -200.78889648 107.75524414 -200.78889648 107.75524414 -200.50976562 109.09960938 C -199.5029163 114.06063058 -198.74467192 118.95688401 -198.23950195 123.99243164 C -197.91273576 126.73147181 -197.27608396 129.33792514 -196.5625 132 C -196.29824219 133.01707031 -196.03398437 134.03414062 -195.76171875 135.08203125 C -195.51035156 136.04496094 -195.25898438 137.00789062 -195 138 C -193.70976534 143.21920732 -192.75492177 148.29827093 -192.34375 153.6640625 C -192.03093406 156.18799143 -192.03093406 156.18799143 -191.0078125 159.27734375 C -189.9366359 163.23405421 -189.59207567 166.84924162 -189.375 170.9375 C -189.33632813 171.62134766 -189.29765625 172.30519531 -189.2578125 173.00976562 C -189.16477588 174.67279513 -189.08136213 176.33635847 -189 178 C -188.34 178 -187.68 178 -187 178 C -187 179.98 -187 181.96 -187 184 C -174.66119811 181.57282265 -162.3383781 179.10448406 -150.0625 176.375 C -142.42767421 174.68032669 -134.79747696 173.23705305 -127.07250977 172.02294922 C -122.01232112 171.21382546 -117.13379958 170.06901322 -112.1875 168.75 C -107.3776147 167.61826228 -102.51102919 166.8977868 -97.6328125 166.125 C -93.35675784 165.43392046 -89.1901772 164.61738059 -85 163.5 C -75.69886012 161.03182042 -66.07120187 159.56996555 -56.515625 158.4765625 C -53.18454358 158.3864485 -53.18454358 158.3864485 -52 157 C -51.76712992 155.31816052 -51.58735834 153.6287584 -51.4375 151.9375 C -51.35371094 151.01839844 -51.26992188 150.09929687 -51.18359375 149.15234375 C -51.12300781 148.44207031 -51.06242188 147.73179687 -51 147 C -51.66 147 -52.32 147 -53 147 C -54.42002108 140.2168636 -55.22731216 133.93302093 -55 127 C -55.66 127 -56.32 127 -57 127 C -57 123.37 -57 119.74 -57 116 C -57.66 116 -58.32 116 -59 116 C -59.06058594 115.36191406 -59.12117187 114.72382813 -59.18359375 114.06640625 C -59.26738281 113.24011719 -59.35117187 112.41382813 -59.4375 111.5625 C -59.51871094 110.73878906 -59.59992188 109.91507812 -59.68359375 109.06640625 C -59.78930815 107.01337975 -59.78930815 107.01337975 -61 106 C -61.07179964 104.48071962 -61.08392007 102.95832518 -61.0625 101.4375 C -61.05347656 100.61121094 -61.04445313 99.78492188 -61.03515625 98.93359375 C -61.01775391 97.97646484 -61.01775391 97.97646484 -61 97 C -61.66 97 -62.32 97 -63 97 C -63.0501123 96.42032471 -63.10022461 95.84064941 -63.15185547 95.2434082 C -63.38497534 92.59900423 -63.62987578 89.95581713 -63.875 87.3125 C -63.95363281 86.40048828 -64.03226563 85.48847656 -64.11328125 84.54882812 C -64.54409967 79.99209483 -65.08811971 76.20613663 -67 72 C -67.125 68.6875 -67.125 68.6875 -67 66 C -67.66 66 -68.32 66 -69 66 C -69 62.7 -69 59.4 -69 56 C -69.66 56 -70.32 56 -71 56 C -71.33745354 53.60468244 -71.6700829 51.20885732 -72 48.8125 C -72.14308594 47.80219727 -72.14308594 47.80219727 -72.2890625 46.77148438 C -72.78324613 43.15335423 -73.11346131 39.65203599 -73 36 C -73.66 36 -74.32 36 -75 36 C -75.07516846 35.410979 -75.15033691 34.82195801 -75.2277832 34.21508789 C -75.58011879 31.49627155 -75.94622804 28.77947257 -76.3125 26.0625 C -76.48942383 24.67321289 -76.48942383 24.67321289 -76.66992188 23.25585938 C -77.40292514 17.89929708 -78.47159957 13.02706119 -80.40307617 7.97045898 C -81 6 -81 6 -81 2 C -60.15458514 -8.42270743 -21.99266072 -2.04178776 0 0 Z" strokeLinecap="round" />
</g>
</svg>