<?xml version="1.0" encoding="UTF-8"?>
<svg version="1.1" xmlns="http://www.w3.org/2000/svg" width="1152" height="676">

<path d="M0 0 C0 0.66 0 1.32 0 2 C0.5576001 2.04487549 1.1152002 2.08975098 1.68969727 2.13598633 C20.35465437 3.67558166 37.10518842 6.80515247 54.5625 13.6875 C55.38041016 14.00783203 56.19832031 14.32816406 57.04101562 14.65820312 C59.02813622 15.43678254 61.01418427 16.21809845 63 17 C63.06058594 17.63808594 63.12117188 18.27617188 63.18359375 18.93359375 C63.30927734 20.17302734 63.30927734 20.17302734 63.4375 21.4375 C63.51871094 22.26121094 63.59992188 23.08492187 63.68359375 23.93359375 C63.78930815 25.98662025 63.78930815 25.98662025 65 27 C65.14115161 29.67058851 65.04247107 32.32432238 65 35 C65.99 35.33 66.98 35.66 68 36 C68 39.3 68 42.6 68 46 C68.66 46 69.32 46 70 46 C70.06058594 46.63808594 70.12117188 47.27617188 70.18359375 47.93359375 C70.26738281 48.75988281 70.35117187 49.58617187 70.4375 50.4375 C70.51871094 51.26121094 70.59992188 52.08492187 70.68359375 52.93359375 C70.78930815 54.98662025 70.78930815 54.98662025 72 56 C72.07205511 57.68608966 72.08386068 59.37500659 72.0625 61.0625 C72.05347656 61.98160156 72.04445313 62.90070313 72.03515625 63.84765625 C72.01775391 64.91306641 72.01775391 64.91306641 72 66 C72.66 66 73.32 66 74 66 C74.06058594 66.63808594 74.12117188 67.27617187 74.18359375 67.93359375 C74.30927734 69.17302734 74.30927734 69.17302734 74.4375 70.4375 C74.51871094 71.26121094 74.59992188 72.08492188 74.68359375 72.93359375 C74.78930815 74.98662025 74.78930815 74.98662025 76 76 C76.32097751 78.31817089 76.51220956 80.63779357 76.71875 82.96875 C76.79065837 84.99180593 76.79065837 84.99180593 78 86 C78.07205511 87.68608966 78.08386068 89.37500659 78.0625 91.0625 C78.05347656 91.98160156 78.04445313 92.90070313 78.03515625 93.84765625 C78.01775391 94.91306641 78.01775391 94.91306641 78 96 C78.66 96 79.32 96 80 96 C80 98.97 80 101.94 80 105 C80.66 105 81.32 105 82 105 C82.06058594 105.62648438 82.12117188 106.25296875 82.18359375 106.8984375 C82.26738281 107.71570313 82.35117187 108.53296875 82.4375 109.375 C82.51871094 110.18710938 82.59992188 110.99921875 82.68359375 111.8359375 C82.89090114 114.04272805 82.89090114 114.04272805 84 116 C84.06996014 117.70702735 84.08440154 119.41668003 84.0625 121.125 C84.05347656 122.03507812 84.04445313 122.94515625 84.03515625 123.8828125 C84.01775391 124.93082031 84.01775391 124.93082031 84 126 C84.66 126 85.32 126 86 126 C86 129.63 86 133.26 86 137 C86.66 137 87.32 137 88 137 C88 139.97 88 142.94 88 146 C88.66 146 89.32 146 90 146 C90 149.63 90 153.26 90 157 C90.66 157 91.32 157 92 157 C92.74507544 163.37305598 93.10349817 169.58311325 93 176 C93.99 176 94.98 176 96 176 C96 179.63 96 183.26 96 187 C96.66 187 97.32 187 98 187 C99.7879537 193.8165735 100.23668569 199.96517526 100 207 C100.66 207 101.32 207 102 207 C102 210.3 102 213.6 102 217 C102.66 217 103.32 217 104 217 C104 220.3 104 223.6 104 227 C104.66 227 105.32 227 106 227 C106 230.3 106 233.6 106 237 C106.66 237 107.32 237 108 237 C108 240.3 108 243.6 108 247 C108.66 247 109.32 247 110 247 C110 250.3 110 253.6 110 257 C110.66 257 111.32 257 112 257 C112 260.3 112 263.6 112 267 C112.66 267 113.32 267 114 267 C114.33 270.3 114.66 273.6 115 277 C122.01161721 277.42069703 128.5805394 275.85684494 135.421875 274.4453125 C136.73060753 274.1804389 138.03946836 273.91619858 139.34844971 273.65255737 C142.78458434 272.95887995 146.21905875 272.25731225 149.65319824 271.55383301 C153.79752992 270.70624395 157.94361858 269.86730306 162.08958817 269.02776909 C165.32204292 268.37314538 168.55406906 267.71664373 171.78533936 267.05618286 C178.02033825 265.78518222 184.259442 264.57448028 190.52307129 263.45339966 C194.14140196 262.79106736 197.73823139 262.03877252 201.3359375 261.2734375 C202.82677875 260.96072687 204.31766546 260.6482329 205.80859375 260.3359375 C208.10644553 259.85316649 210.4039347 259.36885221 212.70068359 258.88085938 C214.95317975 258.40304274 217.20691882 257.93151184 219.4609375 257.4609375 C220.14433197 257.31409515 220.82772644 257.16725281 221.53182983 257.01596069 C225.05949991 256.28457616 228.39761771 255.63821008 232 256 C234 258 234 258 234.24365234 261.00317383 C234.15880035 271.09612813 233.64621688 281.10775107 232.828125 291.16772461 C232.62218389 293.72243393 232.43175273 296.27801322 232.2421875 298.83398438 C232.11289874 300.47663514 231.98272402 302.11921646 231.8515625 303.76171875 C231.79626373 304.51692307 231.74096497 305.27212738 231.68399048 306.05021667 C231.34688007 310.03833654 230.72774481 313.37743862 229 317 C228.34 317 227.68 317 227 317 C226.96261719 317.6084375 226.92523437 318.216875 226.88671875 318.84375 C226.2474754 327.36699471 224.66944437 335.63177885 223 344 C222.34 344 221.68 344 221 344 C220.896875 345.03125 220.79375 346.0625 220.6875 347.125 C219.99755153 351.01380047 218.77950816 353.512164 217 357 C216.54666431 358.91048612 216.09412996 360.82118515 215.65234375 362.734375 C213.5893474 369.89927249 209.79525547 376.50512826 206.12109375 382.94921875 C204.5226208 385.87325464 203.2848746 388.92747379 202 392 C199.68512201 397.19795331 196.93438596 401.52533666 193.43359375 406.00390625 C192.04854296 407.93241021 191.05507037 409.78622087 190.0625 411.9375 C188.14175118 416.01909125 185.56153652 419.32651251 182.734375 422.82421875 C181.16577574 424.79203358 179.72977138 426.79721017 178.3125 428.875 C176 432 176 432 173.8125 433.625 C171.81794102 434.86110362 171.81794102 434.86110362 171.34375 437.1171875 C169.33743984 441.42142266 166.07913575 444.23445938 162.6875 447.5 C162.02298828 448.15097656 161.35847656 448.80195312 160.67382812 449.47265625 C159.37753632 450.74202211 158.07854515 452.00863836 156.77661133 453.2722168 C153.60537729 456.3562931 150.49001741 459.4860793 147.4375 462.6875 C145 465 145 465 142.8125 466.0625 C140.82526777 466.85282498 140.82526777 466.85282498 140.125 468.9375 C138.76106526 471.43804702 137.77916713 471.86218114 135.1875 472.9375 C131.32771894 474.70714691 128.93625367 476.90502991 126 480 C124.35394174 481.03357147 122.69036558 482.04060332 121 483 C120.34 483.66 119.68 484.32 119 485 C117.88625 485.433125 116.7725 485.86625 115.625 486.3125 C111.94420223 487.69732332 111.94420223 487.69732332 110.0625 490.4375 C107.30601962 493.86221805 104.0629768 495.42581635 100 497 C99.34 497 98.68 497 98 497 C97.67 497.99 97.34 498.98 97 500 C94.4375 501.4375 94.4375 501.4375 91 503 C89.66520034 503.68464873 88.33191496 504.37225616 87 505.0625 C82.4944067 507.31529665 77.90755595 508.86748709 73 510 C73 510.66 73 511.32 73 512 C72.12988281 512.27263672 72.12988281 512.27263672 71.2421875 512.55078125 C70.46101563 512.80214844 69.67984375 513.05351563 68.875 513.3125 C68.10929687 513.55613281 67.34359375 513.79976562 66.5546875 514.05078125 C63.90859981 514.97219928 63.90859981 514.97219928 61.203125 516.46875 C57.48514398 518.24612629 53.86780009 519.23559868 49.875 520.1875 C49.17246094 520.36474609 48.46992187 520.54199219 47.74609375 520.72460938 C44.36626319 521.55199701 41.50253505 522 38 522 C38 522.66 38 523.32 38 524 C35.36 524 32.72 524 30 524 C30 524.66 30 525.32 30 526 C27.69 526 25.38 526 23 526 C23 524.02 23 522.04 23 520 C22.34 520 21.68 520 21 520 C21 516.7 21 513.4 21 510 C20.34 510 19.68 510 19 510 C19 506.37 19 502.74 19 499 C18.34 499 17.68 499 17 499 C17 496.03 17 493.06 17 490 C16.34 490 15.68 490 15 490 C15 486.37 15 482.74 15 479 C14.34 479 13.68 479 13 479 C13 475.7 13 472.4 13 469 C12.34 469 11.68 469 11 469 C11 465.7 11 462.4 11 459 C10.34 459 9.68 459 9 459 C9 455.7 9 452.4 9 449 C8.34 449 7.68 449 7 449 C6.93941406 448.36191406 6.87882812 447.72382812 6.81640625 447.06640625 C6.69072266 445.82697266 6.69072266 445.82697266 6.5625 444.5625 C6.48128906 443.73878906 6.40007812 442.91507812 6.31640625 442.06640625 C6.21069185 440.01337975 6.21069185 440.01337975 5 439 C4.92794489 437.31391034 4.91613932 435.62499341 4.9375 433.9375 C4.95103516 432.55884766 4.95103516 432.55884766 4.96484375 431.15234375 C4.98224609 430.08693359 4.98224609 430.08693359 5 429 C4.34 429 3.68 429 3 429 C3 425.7 3 422.4 3 419 C2.34 419 1.68 419 1 419 C-0.6120509 412.23514355 -1.26618595 405.95041086 -1 399 C-1.66 399 -2.32 399 -3 399 C-7.77553612 377.39260417 -7.77553612 377.39260417 -7 368 C-7.66 368 -8.32 368 -9 368 C-10.51233701 361.53205867 -11.21432579 355.64409958 -11 349 C-11.66 349 -12.32 349 -13 349 C-14.00295731 343.96577925 -14.99968311 338.9303793 -15.99072266 333.89379883 C-16.32854107 332.18154852 -16.66804245 330.46962935 -17.00927734 328.75805664 C-17.50023006 326.29398931 -17.98506421 323.82878399 -18.46875 321.36328125 C-18.62186646 320.60163162 -18.77498291 319.83998199 -18.93273926 319.05525208 C-19.65911584 315.32155846 -20.18427484 311.80724982 -20 308 C-22.64 308 -25.28 308 -28 308 C-28 308.66 -28 309.32 -28 310 C-28.58378418 310.08040527 -29.16756836 310.16081055 -29.76904297 310.24365234 C-32.47146759 310.61767005 -35.17322565 310.99631465 -37.875 311.375 C-38.7928125 311.50132812 -39.710625 311.62765625 -40.65625 311.7578125 C-46.82428151 312.62654933 -52.90188756 313.73750016 -59 315 C-60.77170324 315.34726432 -62.54384684 315.69228892 -64.31640625 316.03515625 C-65.18201172 316.20466797 -66.04761719 316.37417969 -66.93945312 316.54882812 C-68.72274788 316.89805115 -70.50662769 317.24429696 -72.29101562 317.58789062 C-73.14501953 317.75611328 -73.99902344 317.92433594 -74.87890625 318.09765625 C-75.6479126 318.24726807 -76.41691895 318.39687988 -77.20922852 318.55102539 C-79.01104991 318.83974388 -79.01104991 318.83974388 -80 320 C-81.44609017 320.29774108 -82.90341451 320.54122922 -84.36328125 320.76171875 C-85.29914063 320.90810791 -86.235 321.05449707 -87.19921875 321.20532227 C-88.22660156 321.36444092 -89.25398437 321.52355957 -90.3125 321.6875 C-99.77531542 323.20267016 -109.13793206 325.01674529 -118.5 327.0625 C-119.684729 327.32071533 -120.86945801 327.57893066 -122.09008789 327.8449707 C-124.36541558 328.34106126 -126.64072565 328.83723259 -128.91601562 329.33349609 C-133.02001634 330.22044368 -137.12832728 331.07428968 -141.25 331.875 C-142.95929688 332.21144531 -142.95929688 332.21144531 -144.703125 332.5546875 C-148.53012711 333.07160485 -152.14103862 333.07583112 -156 333 C-153.31216297 348.31071612 -150.56830361 363.60016491 -147.4440918 378.82836914 C-146.15566572 385.12883639 -144.91275013 391.43854375 -143.66111755 397.74639893 C-142.97385242 401.20786566 -142.2850014 404.66901595 -141.59594727 408.13012695 C-141.24141136 409.91286653 -140.88756585 411.69574355 -140.53442383 413.47875977 C-138.68945611 422.79116781 -136.79537007 432.07386828 -134.61450195 441.31469727 C-133.79790244 444.88314307 -133.16374448 448.45129866 -132.5625 452.0625 C-130.52259077 463.99872565 -128.24661757 475.90685512 -125.4375 487.6875 C-124.25722518 492.7069105 -123.24074908 497.74147911 -122.3125 502.8125 C-122.18093506 503.50625732 -122.04937012 504.20001465 -121.91381836 504.91479492 C-121.06790514 509.67341232 -120.88634326 514.16688263 -121 519 C-125.62383036 518.449544 -128.87648694 517.10218313 -133 515 C-134.49258061 514.47826912 -135.9933252 513.97951124 -137.5 513.5 C-142.10340865 512.01702272 -146.24359909 510.13928708 -150.3125 507.5 C-152.74124388 506.14442202 -154.86538423 505.33610947 -157.5 504.5 C-161.96055015 503.07232806 -165.54268704 501.52256578 -168.83203125 498.0859375 C-171.05925888 495.94298335 -173.18800134 494.57341357 -175.875 493.0625 C-178.8796743 491.31785041 -181.6387485 489.60598015 -184.25 487.3125 C-186.91005417 484.8930374 -186.91005417 484.8930374 -190.125 483.4375 C-193.09447532 481.95276234 -194.71178568 480.36202769 -197 478 C-197.76183594 477.54367187 -198.52367187 477.08734375 -199.30859375 476.6171875 C-205.88652072 472.66470308 -211.66719842 467.48516734 -217 462 C-217.825 461.38125 -218.65 460.7625 -219.5 460.125 C-222.6024163 457.48794615 -224.95909957 454.52598117 -227 451 C-227 450.34 -227 449.68 -227 449 C-227.59425781 448.7421875 -228.18851562 448.484375 -228.80078125 448.21875 C-231.19302503 446.89303053 -232.44781639 445.59621136 -234.1875 443.5 C-237.67870054 439.36032593 -241.30933178 435.37154481 -244.984375 431.39453125 C-246.96442618 429.04226115 -248.45810807 426.65223392 -250 424 C-250.8353125 423.1646875 -250.8353125 423.1646875 -251.6875 422.3125 C-252.120625 421.879375 -252.55375 421.44625 -253 421 C-253 420.34 -253 419.68 -253 419 C-253.66 419 -254.32 419 -255 419 C-255.474375 417.80375 -255.94875 416.6075 -256.4375 415.375 C-258.73203125 410.13512501 -261.79239603 405.50012344 -265.00170898 400.78662109 C-268 396.30888959 -268 396.30888959 -268 393 C-268.66 393 -269.32 393 -270 393 C-271.4606285 390.35261084 -272 389.10551666 -272 386 C-272.66 386 -273.32 386 -274 386 C-277.64079463 379.56479472 -279.64134677 374.41216681 -280 367 C-280.66 367 -281.32 367 -282 367 C-283.49821059 363.62902617 -284 361.79557881 -284 358 C-284.66 358 -285.32 358 -286 358 C-286.25394531 356.92621094 -286.50789063 355.85242188 -286.76953125 354.74609375 C-287.1168659 353.30981802 -287.46454033 351.87362444 -287.8125 350.4375 C-287.97814453 349.73302734 -288.14378906 349.02855469 -288.31445312 348.30273438 C-289.45667684 343.62608254 -291.06296833 339.42159763 -293 335 C-294.99232398 328.4014911 -296.22620305 321.83520636 -297 315 C-297.33 314.67 -297.66 314.34 -298 314 C-302.60765298 296.16623434 -301.36191298 277.2723974 -301.03387451 259.02130127 C-301.00473231 257.28237797 -300.98597816 255.54328613 -300.96923828 253.80419922 C-300.74539152 232.47592301 -297.854485 207.479867 -289 188 C-287.03510496 182.93729747 -285.24714288 177.82163103 -283.62109375 172.640625 C-281.1815357 164.93446313 -278.82032334 158.09386832 -274.31640625 151.30859375 C-272.35468677 147.86830825 -271.51394655 144.28568803 -270.640625 140.4453125 C-269.41644936 135.77254451 -267.37250372 133.37250372 -264 130 C-263.67 129.01 -263.34 128.02 -263 127 C-262.52175781 126.52949219 -262.04351562 126.05898437 -261.55078125 125.57421875 C-259.75508379 123.75138229 -259.10861467 122.18889174 -258.1875 119.8125 C-255.15709298 112.71070644 -251.04813091 107.74042693 -245 103 C-244.54496094 102.236875 -244.08992188 101.47375 -243.62109375 100.6875 C-241.90863437 97.84853119 -239.99795839 95.62016825 -237.75 93.1875 C-234.92006812 90.10612021 -232.14006448 87.00587504 -229.4375 83.8125 C-226.50901681 80.44338855 -223.33155146 77.5502178 -219.921875 74.67578125 C-218.06368285 73.05552834 -216.38088052 71.35228584 -214.6875 69.5625 C-212 67 -212 67 -209 67 C-208.93941406 67.63808594 -208.87882812 68.27617187 -208.81640625 68.93359375 C-208.73261719 69.75988281 -208.64882813 70.58617187 -208.5625 71.4375 C-208.48128906 72.26121094 -208.40007812 73.08492188 -208.31640625 73.93359375 C-208.21069185 75.98662025 -208.21069185 75.98662025 -207 77 C-206.92794489 78.68608966 -206.91613932 80.37500659 -206.9375 82.0625 C-206.94652344 82.98160156 -206.95554687 83.90070313 -206.96484375 84.84765625 C-206.97644531 85.55792969 -206.98804688 86.26820313 -207 87 C-206.34 87 -205.68 87 -205 87 C-205 90.3 -205 93.6 -205 97 C-204.34 97 -203.68 97 -203 97 C-202.34752353 100.14449224 -201.70427425 103.29080756 -201.0625 106.4375 C-200.78889648 107.75524414 -200.78889648 107.75524414 -200.50976562 109.09960938 C-199.5029163 114.06063058 -198.74467192 118.95688401 -198.23950195 123.99243164 C-197.91273576 126.73147181 -197.27608396 129.33792514 -196.5625 132 C-196.29824219 133.01707031 -196.03398437 134.03414062 -195.76171875 135.08203125 C-195.51035156 136.04496094 -195.25898438 137.00789062 -195 138 C-193.70976534 143.21920732 -192.75492177 148.29827093 -192.34375 153.6640625 C-192.03093406 156.18799143 -192.03093406 156.18799143 -191.0078125 159.27734375 C-189.9366359 163.23405421 -189.59207567 166.84924162 -189.375 170.9375 C-189.33632813 171.62134766 -189.29765625 172.30519531 -189.2578125 173.00976562 C-189.16477588 174.67279513 -189.08136213 176.33635847 -189 178 C-188.34 178 -187.68 178 -187 178 C-187 179.98 -187 181.96 -187 184 C-174.66119811 181.57282265 -162.3383781 179.10448406 -150.0625 176.375 C-142.42767421 174.68032669 -134.79747696 173.23705305 -127.07250977 172.02294922 C-122.01232112 171.21382546 -117.13379958 170.06901322 -112.1875 168.75 C-107.3776147 167.61826228 -102.51102919 166.8977868 -97.6328125 166.125 C-93.35675784 165.43392046 -89.1901772 164.61738059 -85 163.5 C-75.69886012 161.03182042 -66.07120187 159.56996555 -56.515625 158.4765625 C-53.18454358 158.3864485 -53.18454358 158.3864485 -52 157 C-51.76712992 155.31816052 -51.58735834 153.6287584 -51.4375 151.9375 C-51.35371094 151.01839844 -51.26992188 150.09929687 -51.18359375 149.15234375 C-51.12300781 148.44207031 -51.06242188 147.73179687 -51 147 C-51.66 147 -52.32 147 -53 147 C-54.42002108 140.2168636 -55.22731216 133.93302093 -55 127 C-55.66 127 -56.32 127 -57 127 C-57 123.37 -57 119.74 -57 116 C-57.66 116 -58.32 116 -59 116 C-59.06058594 115.36191406 -59.12117187 114.72382813 -59.18359375 114.06640625 C-59.26738281 113.24011719 -59.35117187 112.41382813 -59.4375 111.5625 C-59.51871094 110.73878906 -59.59992188 109.91507812 -59.68359375 109.06640625 C-59.78930815 107.01337975 -59.78930815 107.01337975 -61 106 C-61.07179964 104.48071962 -61.08392007 102.95832518 -61.0625 101.4375 C-61.05347656 100.61121094 -61.04445313 99.78492188 -61.03515625 98.93359375 C-61.01775391 97.97646484 -61.01775391 97.97646484 -61 97 C-61.66 97 -62.32 97 -63 97 C-63.0501123 96.42032471 -63.10022461 95.84064941 -63.15185547 95.2434082 C-63.38497534 92.59900423 -63.62987578 89.95581713 -63.875 87.3125 C-63.95363281 86.40048828 -64.03226563 85.48847656 -64.11328125 84.54882812 C-64.54409967 79.99209483 -65.08811971 76.20613663 -67 72 C-67.125 68.6875 -67.125 68.6875 -67 66 C-67.66 66 -68.32 66 -69 66 C-69 62.7 -69 59.4 -69 56 C-69.66 56 -70.32 56 -71 56 C-71.33745354 53.60468244 -71.6700829 51.20885732 -72 48.8125 C-72.14308594 47.80219727 -72.14308594 47.80219727 -72.2890625 46.77148438 C-72.78324613 43.15335423 -73.11346131 39.65203599 -73 36 C-73.66 36 -74.32 36 -75 36 C-75.07516846 35.410979 -75.15033691 34.82195801 -75.2277832 34.21508789 C-75.58011879 31.49627155 -75.94622804 28.77947257 -76.3125 26.0625 C-76.48942383 24.67321289 -76.48942383 24.67321289 -76.66992188 23.25585938 C-77.40292514 17.89929708 -78.47159957 13.02706119 -80.40307617 7.97045898 C-81 6 -81 6 -81 2 C-60.15458514 -8.42270743 -21.99266072 -2.04178776 0 0 Z " fill="#FE7F28" transform="translate(612,65)"/>
<path d="M0 0 C0 0.33 0 0.66 0 1 C-1.18215088 0.99476318 -2.36430176 0.98952637 -3.58227539 0.98413086 C-34.80757299 0.77113156 -34.80757299 0.77113156 -66 2 C-67.12583496 2.07202637 -67.12583496 2.07202637 -68.27441406 2.14550781 C-72.18547777 2.40046407 -76.09358198 2.68179957 -80 3 C-80.33 3.99 -80.66 4.98 -81 6 C-81 4.68 -81 3.36 -81 2 C-60.15458514 -8.42270743 -21.99266072 -2.04178776 0 0 Z " fill="#FE7F28" transform="translate(612,65)"/>
<path d="M0 0 C0.33 0 0.66 0 1 0 C1 3.3 1 6.6 1 10 C1.66 10 2.32 10 3 10 C3 13.3 3 16.6 3 20 C3.66 20 4.32 20 5 20 C5.33 23.3 5.66 26.6 6 30 C12.34178073 30.2846241 18.22294264 29.19681781 24.4375 28 C25.45521484 27.80921875 26.47292969 27.6184375 27.52148438 27.421875 C30.01544 26.95352653 32.50815593 26.47943373 35 26 C33 29 33 29 30.6796875 29.6953125 C29.29136719 29.90800781 29.29136719 29.90800781 27.875 30.125 C26.8953125 30.28097656 25.915625 30.43695313 24.90625 30.59765625 C22.39791503 30.9449123 19.88978678 31.26637474 17.375 31.5625 C14.16732896 31.62922499 14.16732896 31.62922499 13 33 C8.96839809 33.26293056 7.44107266 33.29404844 4 31 C3.3046875 28.65234375 3.3046875 28.65234375 2.875 25.9375 C2.56845653 22.66815385 2.56845653 22.66815385 1 20 C0.02803222 13.30422194 -0.11368403 6.75788425 0 0 Z " fill="#FE7F28" transform="translate(721,312)"/>
<path d="M0 0 C0.33 0 0.66 0 1 0 C1.16937843 4.47906838 1.33501087 8.95826796 1.5 13.4375 C1.54769531 14.69755859 1.59539062 15.95761719 1.64453125 17.25585938 C1.83786702 22.54497378 2.02914316 27.80556964 1.90625 33.09765625 C1.99601333 36.83405504 2.58359791 38.65068829 4 42 C4.38088717 44.7632286 4.50552283 47.52718854 4.625 50.3125 C4.66367187 51.05306641 4.70234375 51.79363281 4.7421875 52.55664062 C4.83581705 54.37071309 4.91896851 56.18532116 5 58 C4.34 57.67 3.68 57.34 3 57 C-2.2786816 38.91204057 -0.27829699 18.62877264 0 0 Z " fill="#FE7F28" transform="translate(311,322)"/>
<path d="M0 0 C1.53218158 2.75669617 2.2413354 4.86136636 2.4375 8 C2.78104371 11.79771953 3.52655619 15.31314034 4.5 19 C5.82031273 24.02362894 6.56896135 28.82753623 7 34 C6.01 34 5.02 34 4 34 C4 31.03 4 28.06 4 25 C3.34 25 2.68 25 2 25 C1.90912109 24.04287109 1.90912109 24.04287109 1.81640625 23.06640625 C1.73261719 22.24011719 1.64882813 21.41382813 1.5625 20.5625 C1.48128906 19.73878906 1.40007812 18.91507813 1.31640625 18.06640625 C1.21069185 16.01337975 1.21069185 16.01337975 0 15 C-0.07313567 12.46950598 -0.09247527 9.96695163 -0.0625 7.4375 C-0.05798828 6.72658203 -0.05347656 6.01566406 -0.04882812 5.28320312 C-0.03700864 3.52209987 -0.01907263 1.76103964 0 0 Z " fill="#FE7F28" transform="translate(411,178)"/>
<path d="M0 0 C0.6875 1.5625 0.6875 1.5625 1 4 C0.33440031 5.6972792 -0.34526339 7.39132932 -1.1171875 9.04296875 C-2.00232331 11.00515034 -2.70487653 12.95496804 -3.375 15 C-3.61863281 15.7425 -3.86226563 16.485 -4.11328125 17.25 C-4.60756092 18.7829202 -5.10035446 20.31632927 -5.58740234 21.8515625 C-6.23940992 23.90313378 -6.90081401 25.95153249 -7.5625 28 C-7.77245605 28.67160156 -7.98241211 29.34320313 -8.19873047 30.03515625 C-8.74241004 31.70960336 -9.36535136 33.35787281 -10 35 C-10.99 35.495 -10.99 35.495 -12 36 C-10.99653526 29.79436278 -9.45740183 24.23360136 -7.0078125 18.4453125 C-6.03768405 16.09143495 -5.21766048 13.73510358 -4.4375 11.3125 C-3.17842504 7.42458722 -1.66682302 3.73050866 0 0 Z " fill="#FE7F28" transform="translate(332,224)"/>
<path d="M0 0 C0.66 0 1.32 0 2 0 C2 2.97 2 5.94 2 9 C2.66 9 3.32 9 4 9 C4.06058594 9.62648437 4.12117187 10.25296875 4.18359375 10.8984375 C4.26738281 11.71570313 4.35117187 12.53296875 4.4375 13.375 C4.55931641 14.59316406 4.55931641 14.59316406 4.68359375 15.8359375 C4.89090114 18.04272805 4.89090114 18.04272805 6 20 C6.06996014 21.70702735 6.08440154 23.41668003 6.0625 25.125 C6.05347656 26.03507812 6.04445313 26.94515625 6.03515625 27.8828125 C6.01775391 28.93082031 6.01775391 28.93082031 6 30 C5.67 30 5.34 30 5 30 C4.92652344 29.04287109 4.92652344 29.04287109 4.8515625 28.06640625 C4.77679687 27.24011719 4.70203125 26.41382813 4.625 25.5625 C4.52058594 24.32693359 4.52058594 24.32693359 4.4140625 23.06640625 C4.27742187 22.38449219 4.14078125 21.70257813 4 21 C3.34 20.67 2.68 20.34 2 20 C1.62109375 17.96875 1.62109375 17.96875 1.4375 15.5 C1.4207737 12.45018475 1.4207737 12.45018475 0 10 C-0.07205511 8.31391034 -0.08386068 6.62499341 -0.0625 4.9375 C-0.05347656 4.01839844 -0.04445313 3.09929687 -0.03515625 2.15234375 C-0.02355469 1.44207031 -0.01195312 0.73179687 0 0 Z " fill="#FE7F28" transform="translate(690,161)"/>
<path d="M0 0 C0 0.66 0 1.32 0 2 C-0.99 2 -1.98 2 -3 2 C-3.33 2.99 -3.66 3.98 -4 5 C-5.63978318 6.04349839 -7.31464976 7.03182008 -9 8 C-10.27949391 8.96782232 -11.54962896 9.94808529 -12.8125 10.9375 C-16.65845398 13.86740445 -20.62580534 15.97831339 -25 18 C-26.33519551 18.66292924 -27.66903069 19.3286261 -29 20 C-25.58754168 16.28644242 -22.52469119 14.16398274 -18 12 C-16.97980427 11.0206121 -15.97850195 10.02104551 -15 9 C-14.236875 8.54625 -13.47375 8.0925 -12.6875 7.625 C-10.50716739 6.30665935 -8.7396617 5.01073725 -6.8125 3.375 C-2.81578947 0 -2.81578947 0 0 0 Z " fill="#FE7F28" transform="translate(750,536)"/>
<path d="M0 0 C0 0.66 0 1.32 0 2 C-1.27617187 2.20496094 -2.55234375 2.40992188 -3.8671875 2.62109375 C-5.53648621 2.89305815 -7.20575553 3.16520291 -8.875 3.4375 C-9.71675781 3.57220703 -10.55851562 3.70691406 -11.42578125 3.84570312 C-12.63427734 4.04389648 -12.63427734 4.04389648 -13.8671875 4.24609375 C-14.61081543 4.36654053 -15.35444336 4.4869873 -16.12060547 4.61108398 C-18.07884647 4.93247105 -18.07884647 4.93247105 -20 6 C-21.70702735 6.06996014 -23.41668003 6.08440154 -25.125 6.0625 C-26.03507812 6.05347656 -26.94515625 6.04445312 -27.8828125 6.03515625 C-28.58148438 6.02355469 -29.28015625 6.01195312 -30 6 C-26.30792071 3.53861381 -22.7893499 3.11420044 -18.5 2.4375 C-3.15883768 -0.05960071 -3.15883768 -0.05960071 0 0 Z " fill="#FE7F28" transform="translate(510,233)"/>
<path d="M0 0 C0 0.66 0 1.32 0 2 C-1.27617188 2.20496094 -2.55234375 2.40992188 -3.8671875 2.62109375 C-5.53648621 2.89305815 -7.20575553 3.16520291 -8.875 3.4375 C-9.71675781 3.57220703 -10.55851563 3.70691406 -11.42578125 3.84570312 C-12.63427734 4.04389648 -12.63427734 4.04389648 -13.8671875 4.24609375 C-14.61081543 4.36654053 -15.35444336 4.4869873 -16.12060547 4.61108398 C-18.07884647 4.93247105 -18.07884647 4.93247105 -20 6 C-21.70702735 6.06996014 -23.41668003 6.08440154 -25.125 6.0625 C-26.03507813 6.05347656 -26.94515625 6.04445312 -27.8828125 6.03515625 C-28.58148438 6.02355469 -29.28015625 6.01195312 -30 6 C-26.30792071 3.53861381 -22.7893499 3.11420044 -18.5 2.4375 C-3.15883768 -0.05960071 -3.15883768 -0.05960071 0 0 Z " fill="#FE7F28" transform="translate(540,227)"/>
<path d="M0 0 C-4.33907014 3.12618045 -8.08266504 3.65101784 -13.25 4.125 C-18.0106786 4.19406327 -18.0106786 4.19406327 -22 6 C-23.99958364 6.04080783 -26.00045254 6.04254356 -28 6 C-28 5.67 -28 5.34 -28 5 C-2.85385878 -1.42692939 -2.85385878 -1.42692939 0 0 Z " fill="#FE7F28" transform="translate(756,339)"/>
<path d="M0 0 C0.33 0 0.66 0 1 0 C1.06058594 0.63808594 1.12117187 1.27617187 1.18359375 1.93359375 C1.26738281 2.75988281 1.35117187 3.58617187 1.4375 4.4375 C1.51871094 5.26121094 1.59992187 6.08492187 1.68359375 6.93359375 C1.78930815 8.98662025 1.78930815 8.98662025 3 10 C3.32097751 12.31817089 3.51220956 14.63779357 3.71875 16.96875 C3.79065837 18.99180593 3.79065837 18.99180593 5 20 C5.07205511 21.68608966 5.08386068 23.37500659 5.0625 25.0625 C5.05347656 25.98160156 5.04445313 26.90070313 5.03515625 27.84765625 C5.02355469 28.55792969 5.01195312 29.26820313 5 30 C4.34 30 3.68 30 3 30 C2.94465088 29.42967041 2.88930176 28.85934082 2.83227539 28.27172852 C2.58026257 25.70151247 2.32147272 23.13202369 2.0625 20.5625 C1.93198242 19.21575195 1.93198242 19.21575195 1.79882812 17.84179688 C1.71181641 16.98779297 1.62480469 16.13378906 1.53515625 15.25390625 C1.456604 14.46314697 1.37805176 13.6723877 1.29711914 12.85766602 C1.18448501 10.98896652 1.18448501 10.98896652 0 10 C-0.07205511 8.31391034 -0.08386068 6.62499341 -0.0625 4.9375 C-0.05347656 4.01839844 -0.04445313 3.09929687 -0.03515625 2.15234375 C-0.02355469 1.44207031 -0.01195312 0.73179687 0 0 Z " fill="#FE7F28" transform="translate(685,131)"/>
<path d="M0 0 C0.06058594 0.63808594 0.12117188 1.27617187 0.18359375 1.93359375 C0.26738281 2.75988281 0.35117187 3.58617187 0.4375 4.4375 C0.51871094 5.26121094 0.59992188 6.08492187 0.68359375 6.93359375 C0.78930815 8.98662025 0.78930815 8.98662025 2 10 C2.07205511 11.68608966 2.08386068 13.37500659 2.0625 15.0625 C2.05347656 15.98160156 2.04445313 16.90070313 2.03515625 17.84765625 C2.02355469 18.55792969 2.01195312 19.26820313 2 20 C1.67 20 1.34 20 1 20 C0.95101563 19.38511719 0.90203125 18.77023438 0.8515625 18.13671875 C0.77679688 17.32847656 0.70203125 16.52023438 0.625 15.6875 C0.55539062 14.88699219 0.48578125 14.08648437 0.4140625 13.26171875 C0.10435574 10.72775559 0.10435574 10.72775559 -2 8 C-2.38499891 6.34450469 -2.72793135 4.6777567 -3 3 C-4.65 4.65 -6.3 6.3 -8 8 C-8.66 7.67 -9.32 7.34 -10 7 C-8.90536178 5.82438854 -7.79892814 4.6597511 -6.6875 3.5 C-6.07261719 2.8503125 -5.45773437 2.200625 -4.82421875 1.53125 C-3 0 -3 0 0 0 Z " fill="#FE7F28" transform="translate(403,132)"/>
<path d="M0 0 C3.89839291 5.84758937 4.29973431 13.10611082 4 20 C3.34 20 2.68 20 2 20 C0.2120463 13.1834265 -0.23668569 7.03482474 0 0 Z " fill="#FE7F28" transform="translate(486,556)"/>
<path d="M0 0 C0.33 0 0.66 0 1 0 C1 2.31 1 4.62 1 7 C1.99 7.33 2.98 7.66 4 8 C4.33 12.62 4.66 17.24 5 22 C1.01499541 18.01499541 0.21752462 10.92104485 -0.19140625 5.4296875 C-0.1881607 3.61867035 -0.10430848 1.80801365 0 0 Z " fill="#FE7F28" transform="translate(316,380)"/>
<path d="M0 0 C0.99 0 1.98 0 3 0 C3.70132913 6.70019789 4.11044961 13.26257354 4 20 C3.67 20 3.34 20 3 20 C2.49395076 17.60530271 1.99500483 15.20948283 1.5 12.8125 C1.28537109 11.80219727 1.28537109 11.80219727 1.06640625 10.77148438 C0.31930158 7.12490207 -0.17352282 3.72351043 0 0 Z " fill="#FE7F28" transform="translate(594,383)"/>
<path d="M0 0 C0 0.66 0 1.32 0 2 C-6.76485645 3.6120509 -13.04958914 4.26618595 -20 4 C-14.15241063 0.10160709 -6.89388918 -0.29973431 0 0 Z " fill="#FE7F28" transform="translate(480,239)"/>
<path d="M0 0 C2.42828495 7.28485485 -2.8768773 15.51534829 -6 22 C-6.97591583 18.61682513 -6.85856655 16.4342662 -6 13 C-5.34 13 -4.68 13 -4 13 C-3.86722656 12.43796875 -3.73445312 11.8759375 -3.59765625 11.296875 C-2.97562889 8.90633847 -2.22884959 6.58964225 -1.4375 4.25 C-1.16808594 3.45078125 -0.89867187 2.6515625 -0.62109375 1.828125 C-0.41613281 1.22484375 -0.21117187 0.6215625 0 0 Z " fill="#FE7F28" transform="translate(828,419)"/>
<path d="M0 0 C0.99 0 1.98 0 3 0 C3.04898437 0.62648438 3.09796875 1.25296875 3.1484375 1.8984375 C3.22320312 2.71570313 3.29796875 3.53296875 3.375 4.375 C3.44460938 5.18710937 3.51421875 5.99921875 3.5859375 6.8359375 C3.82892588 9.20334191 3.82892588 9.20334191 6 11 C6.4140625 13.1640625 6.4140625 13.1640625 6.625 15.625 C6.69976562 16.44226563 6.77453125 17.25953125 6.8515625 18.1015625 C6.92503906 19.04128906 6.92503906 19.04128906 7 20 C4.23776722 17.23776722 4.42143709 14.79293383 4 11 C3.34 11 2.68 11 2 11 C0.80712589 7.12315913 0 4.08378077 0 0 Z " fill="#FE7F28" transform="translate(324,412)"/>
<path d="M0 0 C-0.99 0.33 -1.98 0.66 -3 1 C-3.33 1.66 -3.66 2.32 -4 3 C-8.95 3 -13.9 3 -19 3 C-19 2.67 -19 2.34 -19 2 C-16.58525383 1.46839543 -14.16891893 0.94945234 -11.75 0.4375 C-11.06808594 0.28603516 -10.38617187 0.13457031 -9.68359375 -0.02148438 C-6.18230962 -0.75233495 -3.39701827 -1.32203546 0 0 Z " fill="#FE7F28" transform="translate(778,335)"/>
<path d="M0 0 C1 2 1 2 0.25 5.3125 C-1.35827434 10.05690929 -3.27356038 13.6284594 -7 17 C-6.67 14.69 -6.34 12.38 -6 10 C-5.34 10 -4.68 10 -4 10 C-3.896875 9.278125 -3.79375 8.55625 -3.6875 7.8125 C-2.94013068 4.75508007 -1.71954811 2.61670365 0 0 Z " fill="#FE7F28" transform="translate(340,207)"/>
<path d="M0 0 C0 0.66 0 1.32 0 2 C-2.04071515 2.33910994 -4.08262621 2.67102704 -6.125 3 C-7.83042969 3.2784375 -7.83042969 3.2784375 -9.5703125 3.5625 C-12.76137602 3.96956049 -15.78817791 4.07809902 -19 4 C-13.0428783 0.52501234 -6.7393695 -0.28080706 0 0 Z " fill="#FE7F28" transform="translate(460,243)"/>
<path d="M0 0 C0.66 0 1.32 0 2 0 C2.06058594 0.63808594 2.12117187 1.27617188 2.18359375 1.93359375 C2.26738281 2.75988281 2.35117187 3.58617188 2.4375 4.4375 C2.55931641 5.67306641 2.55931641 5.67306641 2.68359375 6.93359375 C2.78930815 8.98662025 2.78930815 8.98662025 4 10 C4.07205511 11.68608966 4.08386068 13.37500659 4.0625 15.0625 C4.05347656 15.98160156 4.04445313 16.90070313 4.03515625 17.84765625 C4.02355469 18.55792969 4.01195312 19.26820313 4 20 C3.67 20 3.34 20 3 20 C3 17.03 3 14.06 3 11 C2.01 10.67 1.02 10.34 0 10 C0 6.7 0 3.4 0 0 Z " fill="#FE7F28" transform="translate(680,111)"/>
<path d="M0 0 C2.99628539 2.99628539 2.7249286 6.58493471 3.125 10.625 C3.21136719 11.42679687 3.29773438 12.22859375 3.38671875 13.0546875 C3.59896327 15.03563635 3.80049931 17.01772718 4 19 C3.01 18.34 2.02 17.68 1 17 C0.61615491 14.06402461 0.396157 11.31972627 0.3125 8.375 C0.27833984 7.57320313 0.24417969 6.77140625 0.20898438 5.9453125 C0.12643122 3.96403682 0.06154084 1.98203963 0 0 Z " fill="#FE7F28" transform="translate(464,446)"/>
<path d="M0 0 C0.99 0 1.98 0 3 0 C3 3.63 3 7.26 3 11 C2.34 11 1.68 11 1 11 C0.67 7.37 0.34 3.74 0 0 Z " fill="#FE7F28" transform="translate(608,453)"/>
<path d="M0 0 C0.99 0 1.98 0 3 0 C3 3.63 3 7.26 3 11 C2.34 11 1.68 11 1 11 C0.67 7.37 0.34 3.74 0 0 Z " fill="#FE7F28" transform="translate(598,403)"/>
<path d="M0 0 C4.48148494 2.18018186 6.21849541 4.34829356 8 9 C7.67 9.66 7.34 10.32 7 11 C5.5 9.625 5.5 9.625 4 8 C4 7.34 4 6.68 4 6 C3.34 6 2.68 6 2 6 C1.34 4.02 0.68 2.04 0 0 Z " fill="#FE7F28" transform="translate(355,478)"/>
<path d="M0 0 C0.640625 1.8359375 0.640625 1.8359375 1 4 C-1.46026571 6.87030999 -3.85489214 8.90326143 -7 11 C-5.22054913 6.95579349 -2.60470327 3.53921513 0 0 Z " fill="#FE7F28" transform="translate(362,172)"/>
<path d="M0 0 C0 0.66 0 1.32 0 2 C-3.3 2.33 -6.6 2.66 -10 3 C-10 2.34 -10 1.68 -10 1 C-6.52674819 -0.1577506 -3.63932552 -0.06866652 0 0 Z " fill="#FE7F28" transform="translate(510,233)"/>
<path d="M0 0 C0 0.66 0 1.32 0 2 C-3.3 2.33 -6.6 2.66 -10 3 C-10 2.34 -10 1.68 -10 1 C-6.52674819 -0.1577506 -3.63932552 -0.06866652 0 0 Z " fill="#FE7F28" transform="translate(540,227)"/>
<path d="M0 0 C0.33 0.99 0.66 1.98 1 3 C-0.375 5.6875 -0.375 5.6875 -2 8 C-2.33 8 -2.66 8 -3 8 C-3.1875 5.125 -3.1875 5.125 -3 2 C-2.01 1.34 -1.02 0.68 0 0 Z " fill="#FE7F28" transform="translate(832,411)"/>
</svg>
